<svg height="682pt" viewBox="-256 -21 682 682.6669" width="682pt" xmlns="http://www.w3.org/2000/svg"><path d="m147.042969 281.773438c.078125-.164063.171875-.3125.234375-.484376 9.9375-21.171874 10.714844-45.5 2.144531-67.261718-8.5625-21.761719-25.71875-39.027344-47.421875-47.742188v-67.941406c.601562-12.410156-8.925781-22.984375-21.332031-23.675781v-64c0-5.894531-4.777344-10.667969-10.667969-10.667969s-10.664062 4.773438-10.664062 10.667969v64c-12.410157.691406-21.933594 11.265625-21.335938 23.675781v67.941406c-21.703125 8.714844-38.855469 25.980469-47.425781 47.742188-8.5625 21.761718-7.789063 46.089844 2.144531 67.261718.066406.171876.160156.320313.238281.484376 7.886719 16.613281 20.898438 30.265624 37.128907 38.929687l-2.546876 31.296875h-10.871093c-5.894531 0-10.667969 4.777344-10.667969 10.664062 0 5.894532 4.773438 10.671876 10.667969 10.671876h9.121093l-19.789062 242.035156c-.386719 6.289062 1.871094 12.457031 6.21875 17.011718 4.699219 4.902344 11.207031 7.65625 17.996094 7.617188h79.574218c6.78125.035156 13.28125-2.71875 17.972657-7.617188 4.40625-4.625 6.664062-10.882812 6.242187-17.257812l-19.820312-241.789062h9.148437c5.894531 0 10.671875-4.777344 10.671875-10.671876 0-5.886718-4.777344-10.664062-10.671875-10.664062h-10.886719l-2.5625-31.289062c16.25-8.652344 29.277344-22.308594 37.160157-38.9375zm-141.042969-36.441407h128.003906c-.019531 7.273438-1.285156 14.488281-3.738281 21.332031h-120.53125c-2.449219-6.84375-3.714844-14.058593-3.734375-21.332031zm53.335938-146.988281c0-1.441406.566406-2.28125.144531-2.34375l9.996093-.105469c.179688 0 .339844.105469.523438.105469s.375-.105469.574219-.117188l9.238281-.097656c.617188.707032.917969 1.625.855469 2.558594v62.394531c-7.074219-.984375-14.257813-.984375-21.332031 0zm10.664062 82.988281c27.097656.03125 51.234375 17.121094 60.265625 42.667969h-120.53125c9.027344-25.546875 33.167969-42.636719 60.265625-42.667969zm-47.574219 106.664063h95.144531c-12.082031 13.574218-29.394531 21.335937-47.570312 21.335937s-35.484375-7.761719-47.574219-21.335937zm90.242188 328.632812c.015625.421875-.148438.832032-.457031 1.121094-.644532.632812-1.523438.964844-2.421876.917969h-79.574218c-.910156.050781-1.796875-.28125-2.441406-.917969-.886719-.9375-.46875-.894531-.46875-.875l19.890624-243.539062h45.609376zm-21.601563-264.628906h-42.132812l1.929687-23.574219c12.582031 2.984375 25.691407 2.984375 38.269531 0zm0 0"/></svg>