<svg id="Line" height="512" viewBox="0 0 64 64" width="512" xmlns="http://www.w3.org/2000/svg"><path d="m49.5 62a1 1 0 0 1 -1 1h-20a1 1 0 0 1 0-2h2.38l1-2h13.24l1 2h2.38a1 1 0 0 1 1 1zm-31-8a3 3 0 0 0 3 3h34a3 3 0 0 0 3-3v-3h-40zm10-16v-13h-7a3 3 0 0 0 -3 3v21h40v-6h-25a5 5 0 0 1 -5-5zm34-16v16a3 3 0 0 1 -3 3h-26a3 3 0 0 1 -3-3v-16a3 3 0 0 1 3-3h26a3 3 0 0 1 3 3zm-22.59 8 2.3-2.29a1 1 0 0 0 -1.42-1.42l-3 3a1 1 0 0 0 0 1.42l3 3a1 1 0 0 0 1.42-1.42zm7.91-3.95a1 1 0 0 0 -1.27.63l-2 6a1 1 0 0 0 1.9.64l2-6a1 1 0 0 0 -.63-1.27zm7.39 3.24-3-3a1 1 0 0 0 -1.42 1.42l2.3 2.29-2.3 2.29a1 1 0 0 0 1.42 1.42l3-3a1 1 0 0 0 0-1.42z" fill="#c4a2fc"/><path d="m29 22a10 10 0 0 1 -17.32 0 1 1 0 0 1 .37-1.37 1 1 0 0 1 1.36.37 8 8 0 0 0 13.89 0 1 1 0 0 1 1.37-.37 1 1 0 0 1 .33 1.37zm10.23-17.48-4 6.56a16.07 16.07 0 0 1 .81 9.13 16.06 16.06 0 0 1 -9.92 11.69 19 19 0 0 1 13.1 15.68 3 3 0 0 1 -3 3.42h-31.72a3 3 0 0 1 -3-3.42 19 19 0 0 1 13.11-15.67 16 16 0 0 1 -9.91-11.69 16 16 0 0 1 15.67-19.22h15a1 1 0 0 1 1 1.32l-.47 1.27 2.23-.59a1 1 0 0 1 1.1 1.52zm-32.86 12.48 3.19-5h-2.26a13.84 13.84 0 0 0 -.93 5zm14 16a16.75 16.75 0 0 0 -3.68.42 3.92 3.92 0 0 0 7.37 0 16.77 16.77 0 0 0 -3.69-.42zm0 5a5.84 5.84 0 0 1 -4.19-1.75l-.75 12.75h9.88l-.75-12.75a5.82 5.82 0 0 1 -4.19 1.75zm-15.67 5.45 5.22 2.13.46-3.7a1 1 0 1 1 2 .24l-.88 6.88h1.93l.88-14.86a16.86 16.86 0 0 0 -9.61 9.31zm-.2 5.55h5l.17-1.36-5.67-2.3a17.21 17.21 0 0 0 -.53 2.49 1 1 0 0 0 1.03 1.17zm32.74-1.17a17.21 17.21 0 0 0 -.53-2.49l-5.63 2.3.17 1.36h5a1 1 0 0 0 .99-1.17zm-10.8-13.69.87 14.86h1.93l-.86-6.88a1 1 0 0 1 2-.24l.47 3.7 5.22-2.13a16.94 16.94 0 0 0 -9.63-9.31zm7.56-14-5.18-8.14h-16.9l-5.17 8.17a14 14 0 0 0 27.25 0zm.37-3.14a13.9 13.9 0 0 0 -.92-5h-2.26zm1.89-11.44-1.65.44a1 1 0 0 1 -1.19-1.29l.58-1.71h-13.63a14 14 0 0 0 -12.12 7h25.31z" fill="#151a6a"/></svg>