<svg id="Capa_1" enable-background="new 0 0 512 512" height="512" viewBox="0 0 512 512" width="512" xmlns="http://www.w3.org/2000/svg"><g id="Line_cutting_stoke_Expand"><g><path d="m488 440h-8v-206c-.012-9.936-8.064-17.988-18-18h-6v16h6c1.105 0 2 .895 2 2v206h-128c-1.242 0-2.467.289-3.578.845l-14.311 7.155h-124.222l-14.311-7.155c-1.111-.556-2.336-.845-3.578-.845h-128v-206c0-1.105.895-2 2-2h6v-16h-6c-9.936.012-17.988 8.064-18 18v206h-8c-4.418 0-8 3.582-8 8v20c.018 15.457 12.543 27.982 28 28h424c15.457-.018 27.982-12.543 28-28v-20c0-4.418-3.582-8-8-8zm-8 28c-.007 6.624-5.376 11.993-12 12h-424c-6.624-.007-11.993-5.376-12-12v-12h142.111l14.311 7.155c1.111.556 2.336.845 3.578.845h128c1.242 0 2.467-.289 3.578-.845l14.311-7.155h142.111z"/><path d="m72 200v216c0 4.418 3.582 8 8 8h352c4.418 0 8-3.582 8-8v-96h-16v88h-336v-200h80v-16h-88c-4.418 0-8 3.582-8 8z"/><path d="m440 303.606v-103.606c0-4.418-3.582-8-8-8h-104v16h96v95.606z"/><path d="m192 232h42c12.305-.002 23.847-5.965 30.968-16h23.032v44.676c-.012 4.212-2.22 8.113-5.826 10.29l-20 12c-3.799 2.285-8.549 2.285-12.348 0l-20-12c-3.606-2.177-5.814-6.078-5.826-10.29v-12.676h-16v12.676c.028 9.828 5.181 18.929 13.594 24.01l8.313 4.988-4.88 24.4-46.859 17.572c-10.904 4.128-18.13 14.555-18.168 26.214v18.14h-40v16h272v-16h-40v-18.14c-.037-11.66-7.263-22.088-18.168-26.217l-46.859-17.572-4.88-24.4 8.313-4.988c8.412-5.08 13.565-14.18 13.594-24.007v-44.676c4.418 0 8-3.582 8-8v-18c-.024-20.977-17.023-37.976-38-38h-52c-20.977.024-37.976 17.023-38 38v34c0 4.418 3.582 8 8 8zm64 68.685c3.96 0 7.874-.843 11.484-2.471l3.62 18.1-15.104 10.071-15.1-10.07 3.62-18.1c3.608 1.627 7.522 2.469 11.48 2.47zm80 57.175v18.14h-160v-18.14c.016-4.997 3.114-9.466 7.787-11.236l47.185-17.7 20.59 13.727c2.687 1.792 6.189 1.792 8.876 0l20.59-13.727 47.185 17.7c4.673 1.769 7.771 6.239 7.787 11.236zm-40-167.86v10h-24v-32h2c12.145.014 21.986 9.855 22 22zm-96 0c.014-12.145 9.855-21.986 22-22h34v26c-.014 12.145-9.855 21.986-22 22h-34z"/><path d="m336 224c-4.418 0-8 3.582-8 8v64c0 4.418 3.582 8 8 8h64c4.418 0 8-3.582 8-8v-64c0-4.418-3.582-8-8-8zm56 64h-48v-48h48z"/><path d="m177.14 284.116 13.72-8.232-24-40c-1.446-2.41-4.05-3.884-6.86-3.884h-56v16h51.471z"/><path d="m104 264h48v16h-48z"/><path d="m192 136h128c4.418 0 8-3.582 8-8v-104c0-4.418-3.582-8-8-8h-128c-4.418 0-8 3.582-8 8v104c0 4.418 3.582 8 8 8zm56-64v-8c0-4.418 3.582-8 8-8s8 3.582 8 8v8c0 4.418-3.582 8-8 8s-8-3.582-8-8zm-4 24h24c6.624.007 11.993 5.376 12 12v12h-48v-12c.007-6.624 5.376-11.993 12-12zm-44-64h112v88h-16v-12c-.013-11.641-7.216-22.063-18.1-26.191 1.387-3.084 2.103-6.427 2.1-9.809v-8c0-13.255-10.745-24-24-24s-24 10.745-24 24v8c-.003 3.382.713 6.725 2.1 9.809-10.884 4.128-18.087 14.55-18.1 26.191v12h-16z"/><path d="m488 48h-128c-4.418 0-8 3.582-8 8v104c0 4.418 3.582 8 8 8h128c4.418 0 8-3.582 8-8v-104c0-4.418-3.582-8-8-8zm-72 56v-8c0-4.418 3.582-8 8-8s8 3.582 8 8v8c0 4.418-3.582 8-8 8s-8-3.582-8-8zm-4 24h24c6.624.007 11.993 5.376 12 12v12h-48v-12c.007-6.624 5.376-11.993 12-12zm68 24h-16v-12c-.013-11.641-7.216-22.063-18.1-26.191 1.387-3.084 2.103-6.427 2.1-9.809v-8c0-13.255-10.745-24-24-24s-24 10.745-24 24v8c-.003 3.382.713 6.725 2.1 9.809-10.884 4.128-18.087 14.55-18.1 26.191v12h-16v-88h112z"/><path d="m24 168h128c4.418 0 8-3.582 8-8v-104c0-4.418-3.582-8-8-8h-128c-4.418 0-8 3.582-8 8v24h16v-16h112v88h-16v-12c-.013-11.641-7.216-22.063-18.1-26.191 1.387-3.084 2.103-6.427 2.1-9.809v-8c0-13.255-10.745-24-24-24s-24 10.745-24 24v8c-.003 3.382.713 6.725 2.1 9.809-10.884 4.128-18.087 14.55-18.1 26.191v12h-16v-56.808h-16v64.808c0 4.418 3.582 8 8 8zm56-72c0-4.418 3.582-8 8-8s8 3.582 8 8v8c0 4.418-3.582 8-8 8s-8-3.582-8-8zm-16 44c.007-6.624 5.376-11.993 12-12h24c6.624.007 11.993 5.376 12 12v12h-48z"/></g></g></svg>